<?xml version="1.0" encoding="UTF-8"?>
<svg width="962px" height="267px" viewBox="0 0 962 267" version="1.1" xmlns="http://www.w3.org/2000/svg" xmlns:xlink="http://www.w3.org/1999/xlink">
    <title>logo-dark</title>
    <g id="logo-dark" stroke="none" stroke-width="1" fill="none" fill-rule="evenodd">
        <path d="M7,60 L17,60 C20.8659932,59.9990045 24,63.1330112 24,66.9990045 C24,66.9993363 24,66.9996682 23.9990044,66.9999999 L23.9969774,81.2513459 L23.9969774,81.2513459 C41.2070707,58.3856311 66.1935588,44 94,44 C145.914766,44 188,94.144108 188,156 L188,253 C188,256.865993 184.865993,260 181,260 L171,260 C167.134007,260 164,256.865993 164,253 L164,156 L164,156 C164,107.398942 132.659932,68 94,68 C55.3400675,68 24,107.398942 24,156 L24,253 C24,256.865993 20.8659932,260 17,260 L7,260 C3.13400675,260 4.73447626e-16,256.865993 0,253 L0,67 C1.24339826e-15,63.1340068 3.13400675,60 7,60 Z" id="Path" fill="#EFEFEF"></path>
        <path d="M298,44 C349.914766,44 392,92.353247 392,152 C392,211.646753 349.914766,260 298,260 C246.085234,260 204,211.646753 204,152 C204,92.353247 246.085234,44 298,44 Z M298,68 C259.340068,68 228,105.608081 228,152 C228,198.391919 259.340068,236 298,236 C336.659932,236 368,198.391919 368,152 C368,105.608081 336.659932,68 298,68 Z" id="Shape" fill="#EFEFEF"></path>
        <path d="M432.218816,7 L432.22,150.165 L432.22,150.165 L519.010327,84.7640743 C522.097856,82.4374825 526.486869,83.0543226 528.81349,86.1418291 L534.83164,94.1281842 C537.158315,97.215657 536.541478,101.604678 533.453958,103.931291 C533.453938,103.931307 533.453917,103.931322 533.45385,103.931276 L445.777,169.999 L445.777,169.999 L547.685073,243.416516 C550.821821,245.67632 551.532725,250.05109 549.272921,253.187838 C549.243642,253.228478 549.213928,253.268803 549.183784,253.308806 L543.166837,261.293564 C540.875755,264.333933 536.574912,264.985917 533.485668,262.761177 L432.22,189.834 L432.22,189.834 L432.221603,253 C432.221878,256.865993 429.087951,260.00008 425.221958,260.000178 C425.221899,260.000178 425.221839,260.000178 425.22178,260 L415.22178,260 C411.355842,259.999859 408.221858,256.865938 408.221639,253 L408.22,171.749 L408.22,171.749 L408,171.583626 L408.22,171.291 L408.22,168.708 L408,168.416374 L408.22,168.25 L408.218809,7 C408.218729,3.13400675 411.352713,-2.31404626e-05 415.218706,-5.16861407e-05 C415.218723,-5.16862679e-05 415.21874,-5.16863315e-05 415.218758,0 L425.218758,0 C429.084728,5.79115863e-05 432.218726,3.13402937 432.218816,7 Z" id="Path" fill="#EFEFEF"></path>
        <path d="M664,44 C711.043044,44 750.014817,64.9549081 756.914836,92.3112392 C756.914836,92.3112392 756.914836,92.3112392 756.914836,92.3112392 C757.857813,96.0498387 755.591514,99.8450066 751.852914,100.787984 C751.294696,100.928782 750.721204,100.999992 750.145503,101 L739.745117,101 C736.601571,101.000752 733.843055,98.9058457 732.999858,95.877496 C732.65409,94.6354046 732.260115,93.6071338 731.817933,92.7926835 C724.078719,78.5379064 696.649787,68 664,68 C625.340068,68 594,82.7746033 594,101 C594,112.4572 606.385198,122.55069 625.188248,128.467294 L625.759996,128.645303 C637.852447,132.370321 700.05199,149.30337 703.907541,150.733565 L705.353764,151.277852 C708.056363,152.307584 711.725805,153.767028 716.36209,155.656185 C741.475298,165.889117 758,183.274788 758,203.000825 C758,234.481056 715.914766,260.000825 664,260.000825 C619.173568,260.000825 581.67571,240.974134 572.271631,215.51242 C571.85969,214.397083 571.48818,213.025103 571.1571,211.396479 C570.386554,207.608054 572.832807,203.912132 576.621186,203.141359 C577.081086,203.047789 577.549232,203.000707 578.018555,203.000825 L588.325195,203.000825 C591.453994,203.000971 594.202744,205.077414 595.058791,208.086827 C595.527636,209.738388 596.073408,211.076822 596.69611,212.102129 C605.076792,225.901311 632.036566,236.000825 664,236.000825 C702.659932,236.000825 734,221.226222 734,203.000825 C734,191.543625 721.614802,181.450135 702.811752,175.533532 L699.924178,174.647536 C687.103561,170.754532 662.895526,163.794871 627.300072,153.768555 C619.820702,151.359573 614.599981,149.551602 611.63791,148.344641 C586.524702,138.111709 570,120.726037 570,101 C570,69.5197693 612.085234,44 664,44 Z" id="Path" fill="#F66B0E"></path>
        <path d="M868,44 C915.043044,44 954.014817,64.9549081 960.914836,92.3112392 C960.914836,92.3112392 960.914836,92.3112392 960.914836,92.3112392 C961.857813,96.0498387 959.591514,99.8450066 955.852914,100.787984 C955.294696,100.928782 954.721204,100.999992 954.145503,101 L943.745117,101 C940.601571,101.000752 937.843055,98.9058457 936.999858,95.877496 C936.65409,94.6354046 936.260115,93.6071338 935.817933,92.7926835 C928.078719,78.5379064 900.649787,68 868,68 C829.340068,68 798,82.7746033 798,101 C798,112.4572 810.385198,122.55069 829.188248,128.467294 L829.759996,128.645303 C841.852447,132.370321 904.05199,149.30337 907.907541,150.733565 L909.353764,151.277852 C912.056363,152.307584 915.725805,153.767028 920.36209,155.656185 C945.475298,165.889117 962,183.274788 962,203.000825 C962,234.481056 919.914766,260.000825 868,260.000825 C823.173568,260.000825 785.67571,240.974134 776.271631,215.51242 C775.85969,214.397083 775.48818,213.025103 775.1571,211.396479 C774.386554,207.608054 776.832807,203.912132 780.621186,203.141359 C781.081086,203.047789 781.549232,203.000707 782.018555,203.000825 L792.325195,203.000825 C795.453994,203.000971 798.202744,205.077414 799.058791,208.086827 C799.527636,209.738388 800.073408,211.076822 800.69611,212.102129 C809.076792,225.901311 836.036566,236.000825 868,236.000825 C906.659932,236.000825 938,221.226222 938,203.000825 C938,191.543625 925.614802,181.450135 906.811752,175.533532 L903.924178,174.647536 C891.103561,170.754532 866.895526,163.794871 831.300072,153.768555 C823.820702,151.359573 818.599981,149.551602 815.63791,148.344641 C790.524702,138.111709 774,120.726037 774,101 C774,69.5197693 816.085234,44 868,44 Z" id="Path-Copy" fill="#F66B0E"></path>
    </g>
</svg>