<?xml version="1.0" encoding="UTF-8"?>
<svg width="1193px" height="428px" viewBox="0 0 1193 428" version="1.1" xmlns="http://www.w3.org/2000/svg" xmlns:xlink="http://www.w3.org/1999/xlink">
    <title>logo-dark</title>
    <g id="logo-dark" stroke="none" stroke-width="1" fill="none" fill-rule="evenodd">
        <path d="M290.905,176.201 C274.177,192.683 265.813,218.021 265.813,252.215 L265.813,253.691 C266.059,284.687 273.6235,309.1025 288.5065,326.9375 C303.3895,344.7725 326.206,353.69 356.956,353.69 C382.273693,353.69 402.213361,347.644933 416.775004,335.554798 C413.605654,338.436956 410.660197,340.908925 406.638,345.059282 C390.630743,361.576579 371.706,369.69 340.956,369.69 C310.206,369.69 287.3895,360.7725 272.5065,342.9375 C257.6235,325.1025 250.059,300.687 249.813,269.691 L249.813,268.215 C249.813,234.021 257.55563,207.823315 274.905,192.201 C285.705754,182.475415 287.562746,175.986722 302.89385,166.397838 C298.634421,169.255171 294.638014,172.522884 290.905,176.201 Z M204.057,366 L164.205,366 L164.205,250.503 C164.205,231.561 160.2075,218.4 152.2125,211.02 C144.2175,203.64 133.701,199.95 120.663,199.95 C111.152843,199.95 102.939528,201.895264 96.023056,205.785791 C97.3570965,203.541835 98.8498915,201.42933 100.501,199.448 C109.111,189.116 121.165,183.95 136.663,183.95 C149.701,183.95 160.2175,187.64 168.2125,195.02 C176.2075,202.4 180.205,215.561 180.205,234.503 L180.205,350 L220.057,350 L204.057,366 Z M71.586,366 L32.103,366 L32.103,171.168 L48.103,155.169105 L48.103,350 L87.586,350 L71.586,366 Z M663.093,366 L617.337,366 L556.452,273.012 L535.92,292.507 L535.921,291.698 L572.452,257.012 L633.337,350 L679.093,350 L663.093,366 Z M519.921,366 L480.438,366 L480.438,96.999 L496.438,80.999 L496.438,350 L535.921,350 L519.921,366 Z M356.956,183.95 C372.208,183.95 384.385,188.501 393.487,197.603 C402.589,206.705 407.14,218.882 407.14,234.134 L407.14,271.034 C407.14,286.778 402.7735,299.078 394.0405,307.934 C391.305306,310.707718 388.214171,313.047069 384.767097,314.952053 C389.015689,307.321271 391.14,298.015392 391.14,287.034 L391.14,250.134 C391.14,234.882 386.589,222.705 377.487,213.603 C368.385,204.501 356.208,199.95 340.956,199.95 C330.088429,199.95 320.793363,202.187796 313.070802,206.663389 C314.986048,203.364728 317.314607,200.344393 320.056,197.603 C329.158,188.501 341.458,183.95 356.956,183.95 Z M613.095,170.799 L535.921,248.894 L535.92,248.705 L612.909,170.799 L613.095,170.799 Z M660.879,170.799 L600.219,230.584 L600.127,230.444 L660.643,170.799 L660.879,170.799 Z M90.538,191.699 L87.955,191.699 L87.4799084,186.47536 C90.2425643,183.659032 93.346953,181.092901 96.7930744,178.776967 C94.2113724,182.719776 92.1262988,187.027533 90.538,191.699 Z" id="Combined-Shape" stroke="#FFFFFF" stroke-width="6" fill-rule="nonzero"></path>
        <path d="M700.249304,290.975972 C700.607351,296.951477 701.10962,301.392453 701.75611,304.298898 C704.521286,316.730388 710.804416,327.228589 720.6055,335.7935 C734.2585,347.7245 754.369,353.69 780.937,353.69 C805.537,353.69 825.0325,348.4625 839.4235,338.0075 C843.643782,334.941483 847.245247,331.499945 850.227896,327.682886 C850.058644,328.038307 849.828901,328.378485 849.530388,328.701166 L845.245515,333.337033 C838.612348,340.48499 830.748835,348.685675 823.4235,354.0075 C809.0325,364.4625 789.537,369.69 764.937,369.69 C738.369,369.69 718.2585,363.7245 704.6055,351.7935 C690.9525,339.8625 684.126,324.18 684.126,304.746 L698.543969,290.328031 C698.934497,289.937511 699.567662,289.937503 699.958192,290.328022 C700.131269,290.501095 700.23486,290.731634 700.249304,290.975972 Z M893.976036,290.971047 C894.346779,297.068154 894.867487,301.595436 895.538157,304.552892 C898.332123,316.873447 904.596238,327.286982 914.3305,335.7935 C927.9835,347.7245 948.094,353.69 974.662,353.69 C999.262,353.69 1018.7575,348.4625 1033.1485,338.0075 C1036.6982,335.428659 1039.81011,332.584153 1042.48424,329.473982 C1042.22984,329.939019 1041.91913,330.413196 1041.5456,330.897846 C1035.98208,338.116443 1024.60884,348.587598 1017.1485,354.0075 C1002.7575,364.4625 983.262,369.69 958.662,369.69 C932.094,369.69 911.9835,363.7245 898.3305,351.7935 C884.6775,339.8625 877.851,324.18 877.851,304.746 L892.268969,290.328031 C892.658036,289.936055 893.291198,289.934173 893.682881,290.323535 C893.856576,290.4962 893.960866,290.726603 893.976036,290.971047 Z M727.2475,166.607 C713.1025,176.693 706.03,191.207 706.03,210.149 C706.03,220.235 708.0595,228.5375 712.1185,235.0565 C716.1775,241.5755 721.528,246.803 728.17,250.739 C734.812,254.675 742.1305,257.6885 750.1255,259.7795 C758.1205,261.8705 766.054,263.531 773.926,264.761 L775.97026,265.10704 C785.40682,266.729547 793.3969,268.4592 799.9405,270.296 C806.9515,272.264 812.179,275.2775 815.623,279.3365 C819.067,283.3955 820.789,289.484 820.789,297.602 C820.789,305.228 817.6525,311.6855 811.3795,316.9745 C809.173173,318.834737 806.548411,320.367834 803.505215,321.573792 C804.361067,319.07625 804.789,316.418838 804.789,313.602 C804.789,305.484 803.067,299.3955 799.623,295.3365 C796.179,291.2775 790.9515,288.264 783.9405,286.296 C776.9295,284.328 768.258,282.483 757.926,280.761 C750.054,279.531 742.1205,277.8705 734.1255,275.7795 C726.1305,273.6885 718.812,270.675 712.17,266.739 C705.528,262.803 700.1775,257.5755 696.1185,251.0565 C692.0595,244.5375 690.03,236.235 690.03,226.149 C690.03,211.112393 694.486778,198.866117 703.400334,189.410171 L703.947616,188.833538 C704.963339,187.721483 709.844942,182.059897 715.780912,176.297937 L716.408979,175.69176 C719.666244,172.566225 723.204595,169.457043 726.575652,167.073766 L727.2475,166.607 Z M920.9725,166.607 C906.8275,176.693 899.755,191.207 899.755,210.149 C899.755,220.235 901.7845,228.5375 905.8435,235.0565 C909.9025,241.5755 915.253,246.803 921.895,250.739 C928.537,254.675 935.8555,257.6885 943.8505,259.7795 C951.8455,261.8705 959.779,263.531 967.651,264.761 L969.69526,265.10704 C979.13182,266.729547 987.1219,268.4592 993.6655,270.296 C1000.6765,272.264 1005.904,275.2775 1009.348,279.3365 C1012.792,283.3955 1014.514,289.484 1014.514,297.602 C1014.514,305.228 1011.3775,311.6855 1005.1045,316.9745 C1002.89817,318.834737 1000.27341,320.367834 997.230215,321.573792 C998.086067,319.07625 998.514,316.418838 998.514,313.602 C998.514,305.484 996.792,299.3955 993.348,295.3365 C989.904,291.2775 984.6765,288.264 977.6655,286.296 C970.6545,284.328 961.983,282.483 951.651,280.761 C943.779,279.531 935.8455,277.8705 927.8505,275.7795 C919.8555,273.6885 912.537,270.675 905.895,266.739 C899.253,262.803 893.9025,257.5755 889.8435,251.0565 C885.7845,244.5375 883.755,236.235 883.755,226.149 C883.755,211.833175 887.794746,200.046582 895.874238,190.789221 L896.441017,190.14624 C898.489602,187.771474 911.110309,172.322506 924.192679,164.087384 C925.12856,163.498264 926.095371,163.039973 927.086802,162.69397 C924.976544,163.901007 922.938294,165.205303 920.9725,166.607 Z M840.951,227.256 L803.313,227.256 C803.067,216.678 799.4385,208.7445 792.4275,203.4555 C785.4165,198.1665 776.13,195.522 764.568,195.522 C757.1154,195.522 750.838234,196.438839 745.736502,198.272517 C747.041366,193.785465 749.672743,189.933584 753.631,186.7175 C759.535,181.9205 768.514,179.522 780.568,179.522 C792.13,179.522 801.4165,182.1665 808.4275,187.4555 C815.4385,192.7445 819.067,200.678 819.313,211.256 L854.536786,211.256 C855.089071,211.256 855.536786,211.703715 855.536786,212.256 C855.536786,212.521216 855.43143,212.77557 855.243893,212.963107 L840.951,227.256 L840.951,227.256 Z M974.293,179.522 C985.855,179.522 995.1415,182.1665 1002.1525,187.4555 C1009.1635,192.7445 1012.792,200.678 1013.038,211.256 L1048.26179,211.256 C1048.81407,211.256 1049.26179,211.703715 1049.26179,212.256 C1049.26179,212.521216 1049.15643,212.77557 1048.96889,212.963107 L1034.676,227.256 L1034.676,227.256 L997.038,227.256 C996.792,216.678 993.1635,208.7445 986.1525,203.4555 C979.1415,198.1665 969.855,195.522 958.293,195.522 C950.839912,195.522 944.562413,196.438959 939.460501,198.272876 C940.766366,193.785465 943.397743,189.933584 947.356,186.7175 C953.26,181.9205 962.239,179.522 974.293,179.522 Z" id="Shape" stroke="#F66B0E" stroke-width="4" fill-rule="nonzero"></path>
    </g>
</svg>