<?xml version="1.0" encoding="UTF-8"?>
<svg width="1193px" height="428px" viewBox="0 0 1193 428" version="1.1" xmlns="http://www.w3.org/2000/svg" xmlns:xlink="http://www.w3.org/1999/xlink">
    <title>logo-light</title>
    <g id="logo-light" stroke="none" stroke-width="1" fill="none" fill-rule="evenodd">
        <path d="M33.829,165.311407 L33.829,356 C33.829,357.104569 34.7244305,358 35.829,358 L68.656,358 C72.5219932,358 75.656,361.134007 75.656,365 L75.656,367 C75.656,370.865993 72.5219932,374 68.656,374 L32.83,374 L32.83,374 C24.5457288,374 17.83,367.284271 17.83,359 L17.83,174.847 C17.83,168.504639 21.7662839,163.081647 27.3291292,160.887745 C27.3291292,160.887745 27.3291292,160.887745 27.3291292,160.887745 C29.7722504,159.924215 32.5338867,161.123661 33.4974166,163.566782 C33.716521,164.122342 33.8290151,164.714203 33.829,165.311407 Z M121.401,202.282 C134.129724,202.282 144.685639,205.901171 152.657241,213.259572 C161.031853,220.989984 164.825,233.974218 164.825,251.979 L164.824019,356 C164.82399,357.104569 165.719412,358.000008 166.823981,358.000019 C166.823987,358.000019 166.823994,358.000019 166.824,358 L214.859695,358 C217.737486,358.000018 220.070395,360.332928 220.070395,363.210718 C220.070395,364.090157 219.847809,364.955291 219.42337,365.725528 C219.42337,365.725528 219.42337,365.725528 219.42337,365.725528 C216.781213,370.520302 211.845353,374 206.282,374 L163.825,374 C155.540729,374 148.825,367.284271 148.825,359 L148.825,251.979 C148.825,238.003782 146.222147,229.094016 141.804759,225.016428 C136.984361,220.566829 130.320276,218.282 121.401,218.282 C110.954102,218.282 103.657417,221.442347 98.744318,227.745946 C94.6253063,233.030716 92.0466712,239.801442 91.0840639,248.179141 C91.0370734,248.588105 90.9929711,249.056371 90.9517571,249.583938 C90.6666826,253.227299 87.6269032,256.03832 83.9724062,256.038 L81.9645937,256.038 C78.0986008,256.039535 74.9633499,252.906772 74.9618148,249.040779 C74.9617447,248.864142 74.9683604,248.687566 74.9817921,248.51144 C75.0177216,248.036893 75.0557079,247.606269 75.0957511,247.219567 C76.2928031,235.659508 79.9407006,225.844218 86.124682,217.910054 C94.2495828,207.485653 106.263898,202.282 121.401,202.282 Z M144.648,156.155317 C163.793702,156.155317 179.949019,161.088018 192.811888,170.973806 C193.451687,171.465526 194.18441,172.07042 195.010056,172.788489 C197.926467,175.326293 198.233975,179.747767 195.696558,182.664515 C195.552758,182.829813 195.401277,182.988267 195.242156,183.138875 L193.765594,184.545125 C191.165475,187.021585 187.113193,187.128756 184.386266,184.792661 C183.362869,183.916169 182.4711,183.20565 181.710961,182.661106 C171.943097,175.663658 159.676696,172.155317 144.648,172.155317 C131.47443,172.155317 121.36811,174.038713 109.975687,179.713874 C109.249888,180.075432 108.363706,180.545474 107.31714,181.123999 C104.051918,182.928975 99.9449631,181.855502 97.980716,178.683539 L96.9191534,176.970113 C94.8849622,173.682565 95.9000561,169.368219 99.1871547,167.333302 C99.2823156,167.274391 99.3788758,167.217772 99.4776944,167.165191 C100.324875,166.694901 101.060008,166.299639 101.683092,165.979406 C115.887397,158.679125 128.654702,156.155317 144.648,156.155317 Z" id="Shape" fill="#000000" fill-rule="nonzero"></path>
        <path d="M345.753,163.449969 L345.753,165.426531 C345.752003,169.156271 342.826786,172.23019 339.101684,172.416116 C335.173435,172.610387 332.091548,172.852759 329.856024,173.143231 C310.444462,175.665469 294.54714,183.023321 281.935585,195.190807 C266.372827,210.205581 258.343441,233.699757 258.18441,266.122752 L258.182,268.215 C258.182,297.168274 265.463835,319.924009 279.883493,336.822046 C293.968611,353.328043 315.709699,361.69 345.753,361.69 C369.086651,361.69 387.419978,356.725812 401.047194,346.903502 C402.808691,345.63384 404.966976,343.769199 407.522048,341.309579 C410.112796,338.810927 414.176275,338.68826 416.91517,341.023572 L418.448429,342.331953 C421.387586,344.843379 421.735874,349.261828 419.225475,352.201861 C419.086633,352.364465 418.940414,352.520621 418.78554,352.668056 C415.965582,355.416892 413.590948,357.516418 411.661637,358.966632 C395.006058,371.486211 372.932956,377.69 345.753,377.69 C311.344301,377.69 285.115389,367.601957 267.712507,347.207954 C250.814848,327.40601 242.352104,301.289967 242.184539,269.189571 L242.182,267.108 C242.182,230.176748 251.614373,202.211754 270.826415,183.676193 C285.710692,169.31601 304.321822,160.586551 326.440931,157.462925 C329.299774,157.059204 333.283772,156.725716 338.392926,156.462463 C342.253801,156.263593 345.544869,159.23224 345.743733,163.093115 C345.749855,163.211968 345.752945,163.330958 345.753,163.449969 Z M345.753,202.282 C359.863736,202.282 371.366776,206.567446 379.738452,215.243547 C388.045411,223.852577 392.129,235.509367 392.129,249.765 L392.129,285.189 C392.129,299.171031 388.189449,310.618027 380.160847,319.101079 C375.438233,324.09101 369.550431,327.602291 362.599618,329.675775 C360.467197,330.311893 357.44151,330.846519 353.522559,331.279653 C349.679992,331.704602 346.220441,328.934132 345.795429,325.091571 C345.767117,324.835597 345.752952,324.578254 345.753,324.320719 L345.753,322.336344 C345.752279,318.783426 348.413317,315.793488 351.942372,315.382405 C355.082675,315.014768 357.441599,314.564056 359.019146,314.030269 C362.902402,312.716312 366.052692,310.731182 368.540153,308.102921 C373.549551,302.809973 376.129,295.314969 376.129,285.189 L376.129,249.765 C376.129,239.420633 373.447589,231.766423 368.224548,226.353453 C363.066224,221.007554 355.750264,218.282 345.753,218.282 C336.011268,218.282 328.818993,220.996965 323.650452,226.353453 C320.403728,229.718239 318.139105,233.949054 316.890158,239.153726 C316.631422,240.231946 316.405377,241.681532 316.212025,243.502484 C315.834913,247.063549 312.830883,249.765639 309.249906,249.765 L307.203031,249.765 C303.337038,249.765005 300.203027,246.631002 300.203022,242.765009 C300.203022,242.54144 300.213732,242.318 300.235004,242.095445 C300.381099,240.572352 300.546869,239.302407 300.732316,238.28561 C302.39858,229.149536 306.182836,221.413757 312.136548,215.243547 C320.498007,206.578035 331.878732,202.282 345.753,202.282 Z" id="Shape" fill="#000000" fill-rule="nonzero"></path>
        <path d="M488.438,96.0668096 L488.438,356 C488.438,357.104569 489.333431,358 490.438,358 L538.6197,358 C541.5904,358.000014 543.998628,360.408242 543.998628,363.378941 C543.998628,364.343434 543.739296,365.290185 543.247789,366.120045 C543.247789,366.120045 543.247789,366.120045 543.247789,366.120045 C540.529272,370.709999 535.673584,374 530.264,374 L487.438,374 C479.153729,374 472.438,367.284271 472.438,359 L472.438,103.999 C472.438,98.4815333 475.860534,93.8269305 480.594101,91.3332589 C480.594101,91.3332589 480.594101,91.3332589 480.594101,91.3332589 C483.208369,89.9560467 486.444103,90.9588786 487.821315,93.5731465 C488.226328,94.3419548 488.437984,95.1978437 488.438,96.0668096 Z M536.696503,299.297013 L556.588068,279.922112 C561.33561,275.297883 568.932932,275.397847 573.557162,280.14539 C574.117737,280.720913 574.619097,281.351278 575.053697,282.026996 L621.850243,354.786592 C623.138389,356.78941 625.356362,358 627.737664,358 L669.774876,358 C670.986918,358 672.178193,357.685291 673.232094,357.086677 L680.837766,352.766673 C682.558352,351.789425 684.745389,352.39198 685.722667,354.112548 C685.864369,354.362024 685.975591,354.627617 686.053944,354.903621 C686.053944,354.903621 686.053944,354.903621 686.053944,354.903621 C686.430319,356.229423 686.624125,357.607563 686.624125,359 C686.624125,367.284271 679.908396,374 671.624125,374 L623.371647,374 C618.268876,374 613.516094,371.405899 610.755776,367.114173 L565.568178,296.857794 C564.97066,295.928791 563.733171,295.660069 562.804168,296.257586 C562.691534,296.33003 562.586462,296.413603 562.490532,296.507048 L547.860202,310.758411 C545.091079,313.456162 540.659306,313.398011 537.961738,310.62871 C537.961678,310.628649 537.961619,310.628588 537.961742,310.628349 L536.566258,309.195651 C533.86879,306.426252 533.927103,301.99448 536.696503,299.297013 Z M615.963657,165.424115 L615.963657,173.112292 C615.963657,174.870717 615.301851,176.564733 614.109844,177.857474 L547.888516,249.67502 C545.267824,252.517181 540.839307,252.696717 537.997146,250.076025 C537.992038,250.071316 537.986937,250.066598 537.981844,250.061873 L536.530852,248.715931 C533.696507,246.086787 533.530159,241.657755 536.159302,238.823411 L604.966439,164.645961 L604.966439,164.645961 C606.255303,163.256503 607.780575,162.139412 609.452577,161.333822 C609.452577,161.333822 609.452577,161.333822 609.452577,161.333822 C611.711584,160.245406 614.425206,161.194358 615.513622,163.453365 C615.809817,164.068118 615.963632,164.741728 615.963657,165.424115 Z" id="Shape" fill="#000000" fill-rule="nonzero"></path>
        <path d="M811.309,373.69 C835.909,373.69 855.4045,368.4625 869.7955,358.0075 C884.1865,347.5525 891.382,332.731 891.382,313.543 C891.382,301.735 889.291,292.2025 885.109,284.9455 C880.927,277.6885 875.3305,271.969 868.3195,267.787 C861.3085,263.605 853.621,260.53 845.257,258.562 C836.893,256.594 828.652,254.995 820.534,253.765 C812.416,252.289 804.913,250.7515 798.025,249.1525 C791.137,247.5535 785.602,244.909 781.42,241.219 C777.238,237.529 775.147,232.24 775.147,225.352 C775.147,217.726 778.099,211.5145 784.003,206.7175 C789.907,201.9205 798.886,199.522 810.94,199.522 C822.502,199.522 831.7885,202.1665 838.7995,207.4555 C845.8105,212.7445 849.439,220.678 849.685,231.256 L887.323,231.256 L891.382,227.028079 C882.616067,206.875316 874.129067,193.647623 865.921,187.345 C852.145,176.767 833.941,171.478 811.309,171.478 C789.661,171.478 771.7645,176.521 757.6195,186.607 C743.4745,196.693 736.402,211.207 736.402,230.149 C736.402,240.235 738.4315,248.5375 742.4905,255.0565 C746.5495,261.5755 751.9,266.803 758.542,270.739 C765.184,274.675 772.5025,277.6885 780.4975,279.7795 C788.4925,281.8705 796.426,283.531 804.298,284.761 C814.63,286.483 823.3015,288.328 830.3125,290.296 C837.3235,292.264 842.551,295.2775 845.995,299.3365 C849.439,303.3955 851.161,309.484 851.161,317.602 C851.161,325.228 848.0245,331.6855 841.7515,336.9745 C835.4785,342.2635 825.823,344.908 812.785,344.908 C799.747,344.908 789.2305,342.1405 781.2355,336.6055 C773.2405,331.0705 768.997,321.907 768.505,309.115 L734.498,304.746 L730.498,308.746 C730.498,328.18 737.3245,343.8625 750.9775,355.7935 C764.6305,367.7245 784.741,373.69 811.309,373.69 Z M1005.034,373.69 C1029.634,373.69 1049.1295,368.4625 1063.5205,358.0075 C1077.9115,347.5525 1085.107,332.731 1085.107,313.543 C1085.107,301.735 1083.016,292.2025 1078.834,284.9455 C1074.652,277.6885 1069.0555,271.969 1062.0445,267.787 C1055.0335,263.605 1047.346,260.53 1038.982,258.562 C1030.618,256.594 1022.377,254.995 1014.259,253.765 C1006.141,252.289 998.638,250.7515 991.75,249.1525 C984.862,247.5535 979.327,244.909 975.145,241.219 C970.963,237.529 968.872,232.24 968.872,225.352 C968.872,217.726 971.824,211.5145 977.728,206.7175 C983.632,201.9205 992.611,199.522 1004.665,199.522 C1016.227,199.522 1025.5135,202.1665 1032.5245,207.4555 C1039.5355,212.7445 1043.164,220.678 1043.41,231.256 L1081.048,231.256 L1085.107,227.205024 C1076.25654,206.86939 1067.76954,193.582715 1059.646,187.345 C1045.87,176.767 1027.666,171.478 1005.034,171.478 C983.386,171.478 965.4895,176.521 951.3445,186.607 C937.1995,196.693 930.127,211.207 930.127,230.149 C930.127,240.235 932.1565,248.5375 936.2155,255.0565 C940.2745,261.5755 945.625,266.803 952.267,270.739 C958.909,274.675 966.2275,277.6885 974.2225,279.7795 C982.2175,281.8705 990.151,283.531 998.023,284.761 C1008.355,286.483 1017.0265,288.328 1024.0375,290.296 C1031.0485,292.264 1036.276,295.2775 1039.72,299.3365 C1043.164,303.3955 1044.886,309.484 1044.886,317.602 C1044.886,325.228 1041.7495,331.6855 1035.4765,336.9745 C1029.2035,342.2635 1019.548,344.908 1006.51,344.908 C993.472,344.908 982.9555,342.1405 974.9605,336.6055 C966.9655,331.0705 962.722,321.907 962.23,309.115 L928.223,304.746 L924.223,308.746 C924.223,328.18 931.0495,343.8625 944.7025,355.7935 C958.3555,367.7245 978.466,373.69 1005.034,373.69 Z" id="Combined-Shape" fill="#E14D2A" fill-rule="nonzero"></path>
        <path d="M815.309,369.69 C839.909,369.69 859.4045,364.4625 873.7955,354.0075 C888.1865,343.5525 895.382,328.731 895.382,309.543 C895.382,297.735 893.291,288.2025 889.109,280.9455 C884.927,273.6885 879.3305,267.969 872.3195,263.787 C865.3085,259.605 857.621,256.53 849.257,254.562 C840.893,252.594 832.652,250.995 824.534,249.765 C816.416,248.289 808.913,246.7515 802.025,245.1525 C795.137,243.5535 789.602,240.909 785.42,237.219 C781.238,233.529 779.147,228.24 779.147,221.352 C779.147,213.726 782.099,207.5145 788.003,202.7175 C793.907,197.9205 802.886,195.522 814.94,195.522 C826.502,195.522 835.7885,198.1665 842.7995,203.4555 C849.8105,208.7445 853.439,216.678 853.685,227.256 L891.323,227.256 C890.831,208.56 883.697,193.923 869.921,183.345 C856.145,172.767 837.941,167.478 815.309,167.478 C793.661,167.478 775.7645,172.521 761.6195,182.607 C747.4745,192.693 740.402,207.207 740.402,226.149 C740.402,236.235 742.4315,244.5375 746.4905,251.0565 C750.5495,257.5755 755.9,262.803 762.542,266.739 C769.184,270.675 776.5025,273.6885 784.4975,275.7795 C792.4925,277.8705 800.426,279.531 808.298,280.761 C818.63,282.483 827.3015,284.328 834.3125,286.296 C841.3235,288.264 846.551,291.2775 849.995,295.3365 C853.439,299.3955 855.161,305.484 855.161,313.602 C855.161,321.228 852.0245,327.6855 845.7515,332.9745 C839.4785,338.2635 829.823,340.908 816.785,340.908 C803.747,340.908 793.2305,338.1405 785.2355,332.6055 C777.2405,327.0705 772.997,317.907 772.505,305.115 L734.498,304.746 C734.498,324.18 741.3245,339.8625 754.9775,351.7935 C768.6305,363.7245 788.741,369.69 815.309,369.69 Z M1009.034,369.69 C1033.634,369.69 1053.1295,364.4625 1067.5205,354.0075 C1081.9115,343.5525 1089.107,328.731 1089.107,309.543 C1089.107,297.735 1087.016,288.2025 1082.834,280.9455 C1078.652,273.6885 1073.0555,267.969 1066.0445,263.787 C1059.0335,259.605 1051.346,256.53 1042.982,254.562 C1034.618,252.594 1026.377,250.995 1018.259,249.765 C1010.141,248.289 1002.638,246.7515 995.75,245.1525 C988.862,243.5535 983.327,240.909 979.145,237.219 C974.963,233.529 972.872,228.24 972.872,221.352 C972.872,213.726 975.824,207.5145 981.728,202.7175 C987.632,197.9205 996.611,195.522 1008.665,195.522 C1020.227,195.522 1029.5135,198.1665 1036.5245,203.4555 C1043.5355,208.7445 1047.164,216.678 1047.41,227.256 L1085.048,227.256 C1084.556,208.56 1077.422,193.923 1063.646,183.345 C1049.87,172.767 1031.666,167.478 1009.034,167.478 C987.386,167.478 969.4895,172.521 955.3445,182.607 C941.1995,192.693 934.127,207.207 934.127,226.149 C934.127,236.235 936.1565,244.5375 940.2155,251.0565 C944.2745,257.5755 949.625,262.803 956.267,266.739 C962.909,270.675 970.2275,273.6885 978.2225,275.7795 C986.2175,277.8705 994.151,279.531 1002.023,280.761 C1012.355,282.483 1021.0265,284.328 1028.0375,286.296 C1035.0485,288.264 1040.276,291.2775 1043.72,295.3365 C1047.164,299.3955 1048.886,305.484 1048.886,313.602 C1048.886,321.228 1045.7495,327.6855 1039.4765,332.9745 C1033.2035,338.2635 1023.548,340.908 1010.51,340.908 C997.472,340.908 986.9555,338.1405 978.9605,332.6055 C970.9655,327.0705 966.722,317.907 966.23,305.115 L928.223,304.746 C928.223,324.18 935.0495,339.8625 948.7025,351.7935 C962.3555,363.7245 982.466,369.69 1009.034,369.69 Z" id="Combined-Shape-Copy" fill="#FD841F" fill-rule="nonzero"></path>
    </g>
</svg>