<?xml version="1.0" encoding="UTF-8"?>
<svg width="924px" height="260px" viewBox="0 0 924 260" version="1.1" xmlns="http://www.w3.org/2000/svg" xmlns:xlink="http://www.w3.org/1999/xlink">
    <title>logo-dark</title>
    <g id="logo-dark" stroke="none" stroke-width="1" fill="none" fill-rule="evenodd">
        <path d="M90,48 C140.009984,48 180,94.8175794 180,152 L180,256 C180,258.209139 178.209139,260 176,260 L168,260 C165.790861,260 164,258.209139 164,256 L164,152 L164,152 C164,103.143749 130.564715,64 90,64 C49.8409324,64 16.6694186,102.364788 16.0100043,150.537256 L16,152 L16,256 C16,258.209139 14.209139,260 12,260 L4,260 C1.790861,260 2.705415e-16,258.209139 0,256 L0,64 C-2.705415e-16,61.790861 1.790861,60 4,60 L12,60 C14.209139,60 16,61.790861 16,64 L16,92.768 L16,92.768 L16.469651,91.9883849 C32.4499118,65.8563551 58.6187837,48.5736326 88.5027364,48.0140088 L90,48 Z" id="Path-Copy" fill="#FFF7E9" fill-rule="nonzero"></path>
        <path d="M302,52 C251.990016,52 212,98.8175794 212,156 C212,213.182421 251.990016,260 302,260 C352.009984,260 392,213.182421 392,156 C392,98.8175794 352.009984,52 302,52 Z M302,68 C342.564715,68 376,107.143749 376,156 C376,204.856251 342.564715,244 302,244 C261.435285,244 228,204.856251 228,156 C228,107.143749 261.435285,68 302,68 Z" id="Oval-Copy" fill="#FFF7E9" fill-rule="nonzero"></path>
        <path d="M440,4 L440,159.069 L440,159.069 L559.408398,60.9370993 C560.124657,60.3484654 561.023145,60.026912 561.950245,60.0274154 L574.557371,60.0342616 C576.76651,60.0354612 578.556398,61.8272944 578.555199,64.0364331 C578.55455,65.2315092 578.019581,66.3636954 577.096752,67.1230326 L494.632,134.978 L494.632,134.978 L582.777049,253.709008 C584.093881,255.482775 583.723462,257.9882 581.949695,259.305032 C581.273188,259.807266 580.455366,260.083053 579.61287,260.093061 L569.655174,260.211341 C568.371964,260.226583 567.159357,259.625221 566.394878,258.594479 L482.211,145.09 L482.211,145.09 L440,179.779 L440,256 C440,258.209139 438.209139,260 436,260 L428,260 C425.790861,260 424,258.209139 424,256 L424,4 C424,1.790861 425.790861,4.05812251e-16 428,0 L436,0 C438.209139,-4.05812251e-16 440,1.790861 440,4 Z" id="Path-3-Copy" fill="#FFF7E9" fill-rule="nonzero"></path>
        <path d="M676,50 C712.173899,50 742.691014,70.7004215 747.376805,98.5245577 C747.515788,99.3498322 747.637726,100.397763 747.742622,101.668349 C747.925568,103.8699 746.28935,105.803073 744.087817,105.986229 C743.976754,105.995469 743.865353,106.000063 743.753906,106 L735.644531,106 C733.616665,106.001498 731.908523,104.485272 731.669712,102.471516 C731.448987,100.620469 731.18022,99.1466136 730.863411,98.0499512 C725.685851,80.1273965 703.399582,66 676,66 C644.653776,66 620,84.490332 620,106 C620,115.84873 624.989932,123.197815 635.64919,129.749181 L636.130261,130.041998 C636.322516,130.157897 636.514962,130.272923 636.707721,130.387128 L637.287053,130.72733 C645.994657,135.794941 655.576013,139.30311 676.918105,145.910415 L681.375312,147.289623 C699.775145,153.008732 709.760001,156.554421 718.428015,161.054763 L719.110179,161.412333 C720.809386,162.311509 722.46452,163.251135 724.130261,164.25531 C739.539997,173.544906 748,185.759095 748,202 C748,233.509668 715.346224,258 676,258 C639.460202,258 608.692203,236.878691 604.488954,208.628946 C604.395741,208.00247 604.312327,207.232838 604.23871,206.320049 C604.061827,204.118003 605.70365,202.189589 607.905706,202.012825 C608.011145,202.004361 608.116878,202.000083 608.222656,202 L616.300781,202 C618.343062,201.998351 620.058617,203.535478 620.280393,205.565682 C620.394151,206.607803 620.526258,207.468366 620.676715,208.147371 C624.835577,226.916069 647.688026,242 676,242 C707.346224,242 732,223.509668 732,202 C732,192.15127 727.010068,184.802185 716.35081,178.250819 L715.869739,177.958002 C715.677484,177.842103 715.485038,177.727077 715.292279,177.612872 L714.712947,177.27267 C706.005343,172.205059 696.423987,168.69689 675.081895,162.089585 L670.624688,160.710377 C652.224855,154.991268 642.239999,151.445579 633.571985,146.945237 L632.889821,146.587667 C631.190614,145.688491 629.53548,144.748865 627.869739,143.74469 C612.460003,134.455094 604,122.240905 604,106 C604,74.490332 636.653776,50 676,50 Z" id="Path-Copy" fill="#FD841F" fill-rule="nonzero"></path>
        <path d="M852,52 C888.173899,52 918.691014,72.7004215 923.376805,100.524558 C923.515788,101.349832 923.637726,102.397763 923.742622,103.668349 C923.925568,105.8699 922.28935,107.803073 920.087817,107.986229 C919.976754,107.995469 919.865353,108.000063 919.753906,108 L911.644531,108 C909.616665,108.001498 907.908523,106.485272 907.669712,104.471516 C907.448987,102.620469 907.18022,101.146614 906.863411,100.049951 C901.685851,82.1273965 879.399582,68 852,68 C820.653776,68 796,86.490332 796,108 C796,117.84873 800.989932,125.197815 811.64919,131.749181 L812.130261,132.041998 C812.322516,132.157897 812.514962,132.272923 812.707721,132.387128 L813.287053,132.72733 C821.994657,137.794941 831.576013,141.30311 852.918105,147.910415 L857.375312,149.289623 C875.775145,155.008732 885.760001,158.554421 894.428015,163.054763 L895.110179,163.412333 C896.809386,164.311509 898.46452,165.251135 900.130261,166.25531 C915.539997,175.544906 924,187.759095 924,204 C924,235.509668 891.346224,260 852,260 C815.460202,260 784.692203,238.878691 780.488954,210.628946 C780.395741,210.00247 780.312327,209.232838 780.23871,208.320049 C780.061827,206.118003 781.70365,204.189589 783.905706,204.012825 C784.011145,204.004361 784.116878,204.000083 784.222656,204 L792.300781,204 C794.343062,203.998351 796.058617,205.535478 796.280393,207.565682 C796.394151,208.607803 796.526258,209.468366 796.676715,210.147371 C800.835577,228.916069 823.688026,244 852,244 C883.346224,244 908,225.509668 908,204 C908,194.15127 903.010068,186.802185 892.35081,180.250819 L891.869739,179.958002 C891.677484,179.842103 891.485038,179.727077 891.292279,179.612872 L890.712947,179.27267 C882.005343,174.205059 872.423987,170.69689 851.081895,164.089585 L846.624688,162.710377 C828.224855,156.991268 818.239999,153.445579 809.571985,148.945237 L808.889821,148.587667 C807.190614,147.688491 805.53548,146.748865 803.869739,145.74469 C788.460003,136.455094 780,124.240905 780,108 C780,76.490332 812.653776,52 852,52 Z" id="Path-Copy-2" fill="#FD841F" fill-rule="nonzero"></path>
    </g>
</svg>