<?xml version="1.0" encoding="UTF-8"?>
<svg width="1193px" height="428px" viewBox="0 0 1193 428" version="1.1" xmlns="http://www.w3.org/2000/svg" xmlns:xlink="http://www.w3.org/1999/xlink">
    <title>logo-dark</title>
    <g id="logo-dark" stroke="none" stroke-width="1" fill="none" fill-rule="evenodd">
        <g id="nokss" transform="translate(31.365000, 96.999000)" fill-rule="nonzero">
            <path d="M0,269.001 L13.284,269.001 L13.284,167.895 C13.284,152.151 16.236,138.3135 22.14,126.3825 C28.044,114.4515 36.3465,105.042 47.0475,98.154 C57.7485,91.266 70.11,87.822 84.132,87.822 C103.566,87.822 118.0185,93.6645 127.4895,105.3495 C136.9605,117.0345 141.696,135.423 141.696,160.515 L141.696,269.001 L155.349,269.001 L155.349,158.301 C155.349,138.375 152.3355,122.3235 146.3085,110.1465 C140.2815,97.9695 132.102,89.1135 121.77,83.5785 C111.438,78.0435 99.507,75.276 85.977,75.276 C70.725,75.276 56.6415,79.1505 43.7265,86.8995 C30.8115,94.6485 21.156,106.149 14.76,121.401 L13.284,121.401 L12.546,78.228 L0,78.228 L0,269.001 Z" id="Path" fill="#FFF7E9"></path>
            <path d="M291.51,271.953 C309.222,271.953 324.7815,267.771 338.1885,259.407 C351.5955,251.043 361.989,239.481 369.369,224.721 C376.749,209.961 380.439,192.987 380.439,173.799 C380.439,154.119 376.749,136.899 369.369,122.139 C361.989,107.379 351.5955,95.8785 338.1885,87.6375 C324.7815,79.3965 309.222,75.276 291.51,75.276 C273.552,75.276 257.808,79.458 244.278,87.822 C230.748,96.186 220.2315,107.8095 212.7285,122.6925 C205.2255,137.5755 201.474,154.734 201.474,174.168 C201.474,193.356 205.2255,210.33 212.7285,225.09 C220.2315,239.85 230.748,251.3505 244.278,259.5915 C257.808,267.8325 273.552,271.953 291.51,271.953 Z M291.141,258.669 C275.643,258.669 262.236,255.1635 250.92,248.1525 C239.604,241.1415 230.871,231.24 224.721,218.448 C218.571,205.656 215.496,190.896 215.496,174.168 C215.496,156.456 218.694,141.204 225.09,128.412 C231.486,115.62 240.4035,105.7185 251.8425,98.7075 C263.2815,91.6965 276.504,88.191 291.51,88.191 C307.008,88.191 320.3535,91.758 331.5465,98.892 C342.7395,106.026 351.3495,115.989 357.3765,128.781 C363.4035,141.573 366.417,156.579 366.417,173.799 C366.417,191.019 363.2805,206.025 357.0075,218.817 C350.7345,231.609 341.94,241.449 330.624,248.337 C319.308,255.225 306.147,258.669 291.141,258.669 Z" id="Shape" fill="#FFF7E9"></path>
            <polygon id="Path" fill="#FFF7E9" points="428.409 269.001 442.062 269.001 442.062 204.426 487.449 160.515 499.257 178.965 560.511 269.001 576.378 269.001 497.043 150.921 571.95 78.228 553.869 78.228 460.143 169.74 442.062 187.821 442.062 0 428.409 0"></polygon>
            <path d="M670.473,272.691 C691.875,272.691 709.095,268.0785 722.133,258.8535 C735.171,249.6285 741.69,236.406 741.69,219.186 C741.69,206.394 738.7995,196.431 733.0185,189.297 C727.2375,182.163 719.181,176.874 708.849,173.43 C698.517,169.986 686.709,167.28 673.425,165.312 C653.745,162.606 639.1695,158.4855 629.6985,152.9505 C620.2275,147.4155 615.492,138.252 615.492,125.46 C615.492,113.898 620.2275,104.55 629.6985,97.416 C639.1695,90.282 652.515,86.715 669.735,86.715 C685.971,86.715 699.132,90.3435 709.218,97.6005 C719.304,104.8575 724.47,116.85 724.716,133.578 L738,133.578 C738,115.374 732.0345,100.983 720.1035,90.405 C708.1725,79.827 691.26,74.538 669.366,74.538 C649.194,74.538 632.8965,79.335 620.4735,88.929 C608.0505,98.523 601.839,111.192 601.839,126.936 C601.839,143.91 607.743,155.841 619.551,162.729 C631.359,169.617 648.579,174.783 671.211,178.227 C691.137,181.179 705.528,185.484 714.384,191.142 C723.24,196.8 727.668,206.517 727.668,220.293 C727.668,233.085 722.748,242.9865 712.908,249.9975 C703.068,257.0085 689.046,260.514 670.842,260.514 C652.638,260.514 637.9395,256.3935 626.7465,248.1525 C615.5535,239.9115 609.957,227.181 609.957,209.961 L596.304,209.961 C596.304,228.657 602.7,243.786 615.492,255.348 C628.284,266.91 646.611,272.691 670.473,272.691 Z" id="Path" fill="#FD841F"></path>
            <path d="M847.593,272.691 C868.995,272.691 886.215,268.0785 899.253,258.8535 C912.291,249.6285 918.81,236.406 918.81,219.186 C918.81,206.394 915.9195,196.431 910.1385,189.297 C904.3575,182.163 896.301,176.874 885.969,173.43 C875.637,169.986 863.829,167.28 850.545,165.312 C830.865,162.606 816.2895,158.4855 806.8185,152.9505 C797.3475,147.4155 792.612,138.252 792.612,125.46 C792.612,113.898 797.3475,104.55 806.8185,97.416 C816.2895,90.282 829.635,86.715 846.855,86.715 C863.091,86.715 876.252,90.3435 886.338,97.6005 C896.424,104.8575 901.59,116.85 901.836,133.578 L915.12,133.578 C915.12,115.374 909.1545,100.983 897.2235,90.405 C885.2925,79.827 868.38,74.538 846.486,74.538 C826.314,74.538 810.0165,79.335 797.5935,88.929 C785.1705,98.523 778.959,111.192 778.959,126.936 C778.959,143.91 784.863,155.841 796.671,162.729 C808.479,169.617 825.699,174.783 848.331,178.227 C868.257,181.179 882.648,185.484 891.504,191.142 C900.36,196.8 904.788,206.517 904.788,220.293 C904.788,233.085 899.868,242.9865 890.028,249.9975 C880.188,257.0085 866.166,260.514 847.962,260.514 C829.758,260.514 815.0595,256.3935 803.8665,248.1525 C792.6735,239.9115 787.077,227.181 787.077,209.961 L773.424,209.961 C773.424,228.657 779.82,243.786 792.612,255.348 C805.404,266.91 823.731,272.691 847.593,272.691 Z" id="Path" fill="#FD841F"></path>
        </g>
    </g>
</svg>