<?xml version="1.0" encoding="UTF-8"?>
<svg width="512px" height="512px" viewBox="0 0 512 512" version="1.1" xmlns="http://www.w3.org/2000/svg" xmlns:xlink="http://www.w3.org/1999/xlink">
    <title>favicon</title>
    <g id="favicon" stroke="none" stroke-width="1" fill="none" fill-rule="evenodd">
        <rect fill="#000000" x="0" y="0" width="512" height="512"></rect>
        <rect id="Rectangle" fill="#FD841F" x="112" y="130" width="18" height="252"></rect>
        <path d="M194,384 L211.529691,384 L211.529691,250.392381 C211.529691,229.587302 215.425178,211.301587 223.216152,195.535238 C231.007126,179.768889 241.963183,167.334603 256.084323,158.232381 C270.205463,149.130159 286.517815,144.579048 305.021378,144.579048 C330.666667,144.579048 349.738321,152.299683 362.236342,167.740952 C374.734363,183.182222 380.983373,207.481905 380.983373,240.64 L380.983373,384 L399,384 L399,237.714286 C399,211.382857 395.023357,190.171429 387.070071,174.08 C379.116785,157.988571 368.32304,146.285714 354.688836,138.971429 C341.054632,131.657143 325.310372,128 307.456057,128 C287.329375,128 268.744656,133.12 251.7019,143.36 C234.659145,153.6 221.917656,168.79746 213.477435,188.952381 L211.529691,188.952381 L210.555819,131.900952 L194,131.900952 L194,384 Z" id="Path" fill="#FFF7E9" fill-rule="nonzero"></path>
    </g>
</svg>